<svg xmlns="http://www.w3.org/2000/svg" version="1.1" xmlns:xlink="http://www.w3.org/1999/xlink" preserveAspectRatio="none" x="0px" y="0px" width="512px" height="512px" viewBox="0 0 512 512">
<path fill="#DDDDDD" stroke="none" d="
M 512 196.8
L 499.2 177.6 473.6 161.6 459.2 129.6 456 129.6 456 124.8 428.8 89.6 411.2 89.6 400 75.2 318.4 38.4 256 28.8 220.8 0 200 0 200 27.2 201.6 28.8 168 35.2 161.6 46.4 171.2 46.4 164.8 57.6 92.8 57.6 20.8 0 0 0 0 27.2 48 75.2 44.8 86.4 35.2 91.2 35.2 100.8 30.4 100.8 30.4 166.4 48 172.8 40 184 43.2 187.2 28.8 195.2 22.4 228.8 25.6 236.8 11.2 244.8 14.4 252.8 22.4 252.8 14.4 262.4 24 262.4 17.6 272 27.2 272 19.2 280 28.8 280 22.4 289.6 30.4 289.6 24 299.2 33.6 299.2 28.8 308.8 25.6 308.8 28.8 315.2 48 324.8 57.6 368 70.4 372.8 72 382.4 89.6 390.4 104 467.2 216 504 232 504 227.2 478.4 249.6 488 244.8 497.6 256 512 316.8 512 364.8 452.8 364.8 441.6 363.2 438.4
Q 403.2 411.2 464 400
L 464 380.8 462.4 376 468.8 352 473.6 350.4 491.2 265.6 496 262.4 507.2 241.6 496 240 497.6 233.6 473.6 195.2 488 200 512 196.8
M 401.6 366.4
L 363.2 305.6 321.6 321.6 305.6 363.2 366.4 401.6 352 416 267.2 387.2 275.2 321.6 190.4 236.8 124.8 246.4 96 160 110.4 145.6 148.8 206.4 192 190.4 206.4 148.8 145.6 110.4 160 96 246.4 124.8 236.8 190.4 321.6 275.2 387.2 265.6 416 352 401.6 366.4 Z"/>
</svg>
