<?xml version="1.0" standalone="no"?>
<!DOCTYPE svg PUBLIC "-//W3C//DTD SVG 20010904//EN"
 "http://www.w3.org/TR/2001/REC-SVG-20010904/DTD/svg10.dtd">
<svg version="1.0" xmlns="http://www.w3.org/2000/svg"
 width="700.000000pt" height="700.000000pt" viewBox="0 0 700.000000 700.000000"
 preserveAspectRatio="xMidYMid meet">
<metadata>
Created by potrace 1.14, written by Peter Selinger 2001-2017
</metadata>
<g transform="translate(0.000000,700.000000) scale(0.100000,-0.100000)"
fill="#000000" stroke="none">
<path d="M0 6814 l0 -186 330 -330 329 -330 -15 -37 c-8 -20 -15 -38 -15 -41
1 -3 -2 -19 -5 -35 -4 -26 -17 -37 -72 -67 l-67 -36 -3 -66 -3 -66 -32 0 -32
0 0 -447 0 -446 112 -42 c62 -23 115 -44 119 -48 3 -3 -17 -38 -45 -77 -53
-73 -55 -84 -18 -111 9 -7 -15 -23 -125 -83 l-66 -37 -13 -72 c-7 -40 -13 -74
-14 -77 -1 -3 -5 -27 -10 -55 -5 -27 -9 -52 -10 -55 -1 -3 -9 -48 -19 -101
-19 -95 -19 -95 2 -152 l22 -57 -33 -16 c-17 -9 -62 -34 -99 -55 l-67 -39 21
-48 c25 -57 30 -61 77 -57 20 1 40 0 44 -2 4 -3 -10 -26 -30 -51 -73 -90 -73
-82 -9 -81 31 1 59 -1 62 -4 3 -3 -10 -29 -30 -59 -20 -29 -36 -56 -36 -60 0
-5 27 -8 61 -8 l61 0 -51 -50 c-28 -27 -51 -53 -51 -56 0 -3 15 -5 33 -4 17 1
45 2 60 1 30 -1 31 2 -13 -66 -45 -70 -46 -65 10 -65 27 0 50 -2 50 -5 0 -3
-18 -31 -39 -63 l-40 -57 64 -3 64 -3 -31 -64 c-26 -52 -37 -65 -55 -65 l-23
0 22 -44 c20 -41 30 -48 149 -107 136 -68 140 -71 155 -154 10 -56 10 -53 34
-157 12 -51 24 -102 26 -113 2 -11 6 -31 9 -45 16 -83 40 -177 47 -186 5 -6
43 -24 86 -39 42 -15 80 -32 84 -38 3 -6 9 -36 13 -67 l7 -57 51 -23 c29 -13
84 -38 123 -56 l70 -32 27 -148 c27 -147 32 -175 42 -224 2 -14 7 -38 10 -55
3 -16 7 -41 10 -55 3 -14 14 -77 26 -140 11 -63 26 -144 34 -180 7 -36 21
-106 30 -156 l17 -91 91 -30 c51 -17 315 -104 587 -193 272 -89 575 -189 674
-221 174 -58 181 -59 288 -59 l111 0 -7 33 c-11 53 -48 250 -53 284 l-5 33 94
-41 c51 -22 116 -50 143 -62 28 -11 54 -24 58 -27 4 -4 -6 -35 -23 -69 -17
-34 -28 -67 -23 -74 8 -14 69 -93 115 -149 l30 -38 416 1 417 0 36 47 c20 26
137 171 260 322 123 151 240 295 259 320 19 25 43 52 52 62 42 42 48 63 44
144 -2 43 -6 86 -10 96 -9 21 85 83 279 184 236 122 518 224 830 300 185 44
174 42 207 43 49 2 54 16 52 157 -1 71 -7 141 -12 156 -9 22 -5 50 22 150 19
68 39 142 45 165 10 35 17 43 46 53 21 7 35 18 36 28 0 9 2 24 4 32 4 16 60
284 69 333 4 15 8 39 11 55 3 15 8 34 10 42 2 8 7 29 10 45 2 17 7 39 9 50 7
33 46 220 50 241 59 286 74 348 86 352 25 9 60 50 88 102 16 30 48 89 71 131
22 42 41 79 41 81 0 3 -24 9 -52 12 -98 13 -96 12 -85 60 l10 43 -104 166
c-57 92 -121 193 -141 224 -21 32 -47 75 -58 95 l-20 37 28 -9 c15 -4 59 -19
97 -32 l71 -23 129 18 c72 9 144 20 162 23 l32 5 -89 133 c-87 130 -90 133
-177 186 -48 29 -127 78 -174 109 l-86 55 -98 218 c-83 186 -100 218 -119 218
-17 0 -21 7 -23 34 -1 28 -31 72 -147 223 -81 103 -164 211 -185 238 l-39 51
-117 -2 c-134 -1 -116 -11 -210 115 -46 61 -70 84 -105 100 -25 11 -79 35
-120 54 -41 19 -237 108 -435 197 -198 89 -393 178 -434 197 -78 36 -111 44
-311 73 -41 7 -88 13 -105 15 -32 4 -84 12 -125 20 -14 3 -43 8 -64 10 -22 3
-51 7 -65 9 -14 3 -46 8 -71 11 -25 4 -52 9 -60 10 -8 1 -40 6 -70 10 -73 9
-48 -9 -387 272 -23 19 -70 57 -104 84 l-62 49 -141 0 -142 0 1 -182 c0 -101
4 -189 9 -196 4 -7 6 -15 5 -16 -2 -1 -47 -11 -99 -20 -52 -10 -104 -20 -115
-22 -11 -2 -70 -13 -132 -25 -102 -20 -113 -24 -123 -48 -5 -14 -23 -47 -39
-73 -33 -52 -30 -55 42 -53 27 1 47 -3 47 -10 0 -5 -17 -39 -38 -75 l-38 -65
-491 -2 -492 -2 -493 395 -493 394 -142 0 -143 0 0 -186z m2820 -1337 c472
-158 545 -185 543 -202 -3 -37 -14 -121 -23 -180 -5 -33 -12 -78 -15 -100 -3
-23 -7 -50 -9 -60 -2 -11 -7 -47 -11 -80 -3 -32 -8 -62 -10 -65 -2 -3 -6 -34
-10 -70 -4 -36 -8 -67 -10 -70 -2 -3 -7 -33 -10 -65 -4 -33 -9 -62 -10 -65 -2
-3 -6 -32 -9 -65 l-7 -60 579 -579 579 -578 49 6 c27 4 56 9 64 11 8 2 38 6
65 10 28 3 61 7 75 10 14 2 41 6 60 9 59 8 193 27 220 32 14 2 45 7 70 10 25
3 99 14 165 24 66 10 123 15 127 12 6 -6 381 -1126 389 -1162 2 -8 -39 -58
-93 -112 l-96 -97 -59 92 c-33 51 -122 191 -198 312 -155 247 -245 389 -260
411 -9 13 -53 -2 -294 -94 l-284 -109 -109 -283 c-60 -155 -107 -285 -104
-287 2 -2 89 -58 193 -123 103 -65 193 -123 200 -129 7 -6 15 -11 18 -11 3 0
42 -24 88 -53 45 -30 135 -87 200 -127 64 -41 117 -77 117 -82 0 -5 -42 -50
-94 -102 l-94 -93 -54 18 c-29 10 -224 76 -433 147 -209 71 -445 152 -525 179
-161 55 -149 42 -136 143 3 25 9 67 12 94 3 27 7 56 9 65 1 9 6 50 10 91 3 41
8 82 10 90 2 8 7 43 10 77 3 34 8 72 10 84 3 12 7 47 10 77 3 30 7 67 9 81 3
14 7 53 11 86 l6 60 -580 579 -579 579 -79 -12 c-43 -7 -89 -14 -103 -16 -14
-2 -42 -6 -63 -9 -21 -4 -59 -9 -85 -12 -65 -8 -82 -10 -122 -18 -19 -3 -53
-8 -75 -11 -53 -8 -76 -11 -230 -35 -71 -10 -133 -16 -136 -12 -4 4 -95 269
-202 590 l-194 584 93 94 c51 52 97 94 102 94 5 0 29 -33 54 -72 86 -140 461
-733 468 -741 6 -7 519 175 576 204 12 6 26 25 32 42 5 18 49 144 96 281 47
137 86 250 86 251 0 3 -85 57 -195 125 -14 8 -82 52 -152 96 -71 45 -208 132
-305 193 l-178 112 98 98 97 98 45 -14 c25 -7 290 -95 590 -196z"/>
</g>
</svg>
